#!OML:ASF H:\LiuWeirdWalks\Patient Classification 1\Patient 1\Session 1\male.ASF
:FULLY-SPECIFIED
:DEGREES
688
root 0.532722 18.1726 -1.90417 2.20192 4.28721 -5.38874
lowerback 4.08424 -2.48688 3.11526
upperback -0.898164 -2.99114 5.27254
thorax -3.09795 -1.49934 3.91032
lowerneck -15.4423 1.63086 4.85482
upperneck 21.2433 2.70021 -7.05441
head 9.4043 0.870195 -2.91608
rclavicle 3.13583e-014 -2.94201e-014
rhumerus -39.7715 -11.5107 -73.2595
rradius 29.5334
rwrist -8.5194
rhand -17.6957 -4.37187
rfingers 7.12502
rthumb 8.56403 -34.1782
lclavicle 3.13583e-014 -2.94201e-014
lhumerus -31.3033 -1.48992 86.8219
lradius 39.3955
lwrist 11.5912
lhand -12.9857 -2.23325
lfingers 7.12502
lthumb 13.107 27.3349
rfemur -12.0644 2.46415 29.2757
rtibia 24.3383
rfoot -7.99669 -20.4505
rtoes 3.53708
lfemur -16.0464 0.236866 -9.83476
ltibia 61.3353
lfoot -4.40934 5.09735
ltoes 19.6754
689
root 0.524228 18.162 -1.83094 2.11189 4.26153 -5.54922
lowerback 4.11157 -2.47296 3.26435
upperback -0.88333 -2.96339 5.27239
thorax -3.10695 -1.48802 3.82589
lowerneck -15.3955 1.61332 4.85445
upperneck 21.2894 2.67364 -7.02833
head 9.40933 0.861162 -2.91108
rclavicle -1.86858e-014 3.97569e-015
rhumerus -39.783 -11.4218 -73.3973
rradius 29.5664
rwrist -8.56367
rhand -17.6559 -4.37382
rfingers 7.12502
rthumb 8.60239 -34.1786
lclavicle -1.86858e-014 3.97569e-015
lhumerus -31.0099 -1.56548 86.7107
lradius 39.7446
lwrist 11.6288
lhand -13.053 -2.27365
lfingers 7.12502
lthumb 13.0421 27.2986
rfemur -11.7255 2.55002 29.5333
rtibia 24.3887
rfoot -8.24232 -20.6136
rtoes 3.54612
lfemur -16.9302 0.420463 -9.67602
ltibia 61.3252
lfoot -5.27942 5.43284
ltoes 19.6145
690
root 0.516752 18.1508 -1.75735 2.02179 4.20526 -5.70075
lowerback 4.13434 -2.44745 3.41471
upperback -0.866236 -2.92067 5.2664
thorax -3.11184 -1.4693 3.73331
lowerneck -15.338 1.58894 4.82925
upperneck 21.3395 2.6419 -6.99147
head 9.41294 0.849043 -2.8988
rclavicle -9.19379e-015 1.90833e-014
rhumerus -39.8076 -11.3021 -73.5485
rradius 29.6175
rwrist -8.6218
rhand -17.6281 -4.37997
rfingers 7.12502
rthumb 8.62924 -34.1836
lclavicle -9.19379e-015 1.90833e-014
lhumerus -30.7332 -1.6491 86.6035
lradius 40.0771
lwrist 11.6277
lhand -13.1204 -2.38231
lfingers 7.12502
lthumb 12.9772 27.1941
rfemur -11.3898 2.64556 29.7773
rtibia 24.4542
rfoot -8.4941 -20.7597
rtoes 3.53886
lfemur -17.7799 0.61289 -9.54133
ltibia 61.2099
lfoot -6.0686 5.74134
ltoes 19.432
691
root 0.509694 18.1389 -1.6846 1.93352 4.14336 -5.85486
lowerback 4.16731 -2.4226 3.56699
upperback -0.853426 -2.87764 5.26194
thorax -3.12673 -1.45045 3.64197
lowerneck -15.2493 1.57202 4.82476
upperneck 21.3357 2.62097 -6.9854
head 9.39337 0.841207 -2.89833
rclavicle 2.0773e-014 4.21423e-014
rhumerus -39.8282 -11.1601 -73.708
rradius 29.6639
rwrist -8.67933
rhand -17.6054 -4.35704
rfingers 7.12502
rthumb 8.65113 -34.1598
lclavicle 2.0773e-014 4.21423e-014
lhumerus -30.4876 -1.71498 86.4944
lradius 40.4088
lwrist 11.6281
lhand -13.1459 -2.41979
lfingers 7.12502
lthumb 12.9526 27.1582
rfemur -11.0659 2.73567 30.0229
rtibia 24.5319
rfoot -8.74772 -20.8936
rtoes 3.52246
lfemur -18.6143 0.797485 -9.4099
ltibia 60.9953
lfoot -6.78162 6.02128
ltoes 19.1532
692
root 0.503407 18.1267 -1.61185 1.84195 4.07412 -6.00053
lowerback 4.20461 -2.39915 3.71199
upperback -0.837155 -2.83666 5.2592
thorax -3.13973 -1.4325 3.55673
lowerneck -15.2097 1.54486 4.75653
upperneck 21.3833 2.59219 -6.93478
head 9.39901 0.828126 -2.87351
rclavicle 1.20265e-014 -6.36111e-015
rhumerus -39.8413 -10.9973 -73.8703
rradius 29.7151
rwrist -8.71497
rhand -17.5747 -4.30377
rfingers 7.12502
rthumb 8.68074 -34.1053
lclavicle 1.20265e-014 -6.36111e-015
lhumerus -30.2582 -1.7646 86.389
lradius 40.7239
lwrist 11.627
lhand -13.1789 -2.49897
lfingers 7.12502
lthumb 12.9208 27.081
rfemur -10.7405 2.81009 30.2565
rtibia 24.6172
rfoot -9.00678 -21.0079
rtoes 3.50214
lfemur -19.4128 0.964656 -9.29645
ltibia 60.6795
lfoot -7.44607 6.29223
ltoes 18.7155
693
root 0.497738 18.1144 -1.53948 1.74883 3.9988 -6.13694
lowerback 4.2539 -2.37786 3.84888
upperback -0.814883 -2.79853 5.25308
thorax -3.15275 -1.41585 3.47305
lowerneck -15.2199 1.52944 4.69861
upperneck 21.4587 2.57697 -6.88468
head 9.42483 0.821058 -2.84954
rclavicle 5.21313e-014 -3.65764e-014
rhumerus -39.8251 -10.8227 -74.0466
rradius 29.7538
rwrist -8.73777
rhand -17.55 -4.26316
rfingers 7.12502
rthumb 8.70459 -34.0637
lclavicle 5.21313e-014 -3.65764e-014
lhumerus -30.0451 -1.78941 86.2743
lradius 41.041
lwrist 11.6281
lhand -13.1977 -2.58081
lfingers 7.12502
lthumb 12.9026 27.0003
rfemur -10.4156 2.87186 30.4777
rtibia 24.704
rfoot -9.26469 -21.105
rtoes 3.47326
lfemur -20.1837 1.11404 -9.19813
ltibia 60.2682
lfoot -8.04909 6.55388
ltoes 18.067
694
root 0.492754 18.1022 -1.46754 1.66471 3.92582 -6.26292
lowerback 4.30241 -2.35977 3.97613
upperback -0.792958 -2.7651 5.24866
thorax -3.1648 -1.40136 3.39682
lowerneck -15.2672 1.5146 4.62341
upperneck 21.5619 2.5655 -6.82793
head 9.46736 0.814184 -2.82043
rclavicle -1.80397e-014 -2.14687e-014
rhumerus -39.7947 -10.6359 -74.2205
rradius 29.7912
rwrist -8.75281
rhand -17.5158 -4.2154
rfingers 7.12502
rthumb 8.73766 -34.0145
lclavicle -1.80397e-014 -2.14687e-014
lhumerus -29.8481 -1.78268 86.1598
lradius 41.3481
lwrist 11.6029
lhand -13.1869 -2.65204
lfingers 7.12502
lthumb 12.9131 26.9284
rfemur -10.0997 2.91324 30.6834
rtibia 24.7865
rfoot -9.52333 -21.185
rtoes 3.44131
lfemur -20.9367 1.23815 -9.11565
ltibia 59.7634
lfoot -8.5938 6.82254
ltoes 17.2391
695
root 0.488357 18.0906 -1.39546 1.58252 3.84826 -6.38131
lowerback 4.34535 -2.3417 4.09597
upperback -0.767824 -2.73268 5.24393
thorax -3.16987 -1.38723 3.32405
lowerneck -15.3231 1.51227 4.56853
upperneck 21.6645 2.57021 -6.78831
head 9.51288 0.814482 -2.79869
rclavicle -1.48592e-014 -2.54444e-014
rhumerus -39.7553 -10.4276 -74.4002
rradius 29.8387
rwrist -8.77921
rhand -17.4876 -4.20691
rfingers 7.12502
rthumb 8.76483 -34.0049
lclavicle -1.48592e-014 -2.54444e-014
lhumerus -29.6667 -1.75225 86.0464
lradius 41.6417
lwrist 11.5841
lhand -13.1841 -2.72096
lfingers 7.12502
lthumb 12.9157 26.8593
rfemur -9.77866 2.95805 30.8795
rtibia 24.858
rfoot -9.76135 -21.2637
rtoes 3.38626
lfemur -21.66 1.34138 -9.04247
ltibia 59.1699
lfoot -9.07856 7.10083
ltoes 16.2591
696
root 0.484644 18.0799 -1.32333 1.51273 3.76977 -6.48104
lowerback 4.3822 -2.3246 4.20261
upperback -0.739486 -2.7031 5.23326
thorax -3.16761 -1.37429 3.25219
lowerneck -15.4027 1.52616 4.55863
upperneck 21.7567 2.59467 -6.78939
head 9.56175 0.822835 -2.7962
rclavicle 3.37934e-015 4.05521e-014
rhumerus -39.705 -10.213 -74.5875
rradius 29.9008
rwrist -8.82462
rhand -17.4649 -4.20984
rfingers 7.12502
rthumb 8.78669 -34.0069
lclavicle 3.37934e-015 4.05521e-014
lhumerus -29.4831 -1.7013 85.9303
lradius 41.9177
lwrist 11.5893
lhand -13.16 -2.76579
lfingers 7.12502
lthumb 12.939 26.813
rfemur -9.46007 2.98897 31.0507
rtibia 24.9107
rfoot -9.98999 -21.3261
rtoes 3.32525
lfemur -22.3626 1.41863 -8.99262
ltibia 58.4887
lfoot -9.51436 7.40207
ltoes 15.1417
697
root 0.481357 18.0698 -1.25174 1.45786 3.68794 -6.58883
lowerback 4.40661 -2.30705 4.31897
upperback -0.711176 -2.67323 5.22542
thorax -3.15859 -1.3613 3.17721
lowerneck -15.4184 1.544 4.5648
upperneck 21.772 2.62364 -6.8106
head 9.57238 0.834054 -2.80132
rclavicle -1.50082e-014 7.95139e-015
rhumerus -39.6782 -9.9401 -74.8015
rradius 30.0343
rwrist -8.93535
rhand -17.4553 -4.26393
rfingers 7.12502
rthumb 8.79601 -34.0606
lclavicle -1.50082e-014 7.95139e-015
lhumerus -29.3071 -1.63613 85.8164
lradius 42.1662
lwrist 11.5889
lhand -13.1454 -2.79
lfingers 7.12502
lthumb 12.953 26.7879
rfemur -9.14626 3.02204 31.2278
rtibia 24.9352
rfoot -10.1958 -21.3791
rtoes 3.25086
lfemur -23.0548 1.47825 -8.93163
ltibia 57.7267
lfoot -9.88752 7.71595
ltoes 14.0062
698
root 0.478795 18.0613 -1.17954 1.41096 3.59183 -6.67974
lowerback 4.42541 -2.28633 4.41975
upperback -0.686476 -2.64035 5.21456
thorax -3.14948 -1.34656 3.10742
lowerneck -15.424 1.56158 4.56985
upperneck 21.8102 2.65384 -6.83095
head 9.58923 0.845837 -2.80622
rclavicle -6.95746e-016 -1.19271e-014
rhumerus -39.6638 -9.66707 -75.0052
rradius 30.1758
rwrist -9.04002
rhand -17.4561 -4.3223
rfingers 7.12502
rthumb 8.79527 -34.119
lclavicle -6.95746e-016 -1.19271e-014
lhumerus -29.1543 -1.56442 85.7089
lradius 42.3929
lwrist 11.6165
lhand -13.1423 -2.80472
lfingers 7.12502
lthumb 12.956 26.773
rfemur -8.81847 3.05553 31.3814
rtibia 24.9237
rfoot -10.3798 -21.4102
rtoes 3.16887
lfemur -23.7086 1.51702 -8.88952
ltibia 56.8813
lfoot -10.2154 8.05777
ltoes 12.9214
699
root 0.476702 18.0543 -1.10759 1.37684 3.49537 -6.76748
lowerback 4.44172 -2.26723 4.51859
upperback -0.670526 -2.60932 5.20318
thorax -3.14783 -1.33278 3.03851
lowerneck -15.3986 1.56529 4.53637
upperneck 21.8402 2.66635 -6.81528
head 9.59518 0.850789 -2.79396
rclavicle 4.07509e-015 1.98785e-014
rhumerus -39.6832 -9.3586 -75.219
rradius 30.3691
rwrist -9.19499
rhand -17.4642 -4.37775
rfingers 7.12502
rthumb 8.78744 -34.1748
lclavicle 4.07509e-015 1.98785e-014
lhumerus -29.0288 -1.47482 85.6037
lradius 42.5974
lwrist 11.6613
lhand -13.1324 -2.74134
lfingers 7.12502
lthumb 12.9656 26.8358
rfemur -8.4837 3.07821 31.5265
rtibia 24.8667
rfoot -10.5277 -21.4156
rtoes 3.06697
lfemur -24.3399 1.53153 -8.84917
ltibia 55.9581
lfoot -10.4724 8.41922
ltoes 11.9359
700
root 0.475095 18.0489 -1.03551 1.35287 3.38879 -6.8504
lowerback 4.45516 -2.24849 4.60825
upperback -0.659948 -2.57911 5.19524
thorax -3.14944 -1.31927 2.97842
lowerneck -15.3761 1.56476 4.48906
upperneck 21.8848 2.67375 -6.78597
head 9.60608 0.853536 -2.77549
rclavicle -6.4605e-015 -1.51076e-014
rhumerus -39.7134 -9.05921 -75.4181
rradius 30.573
rwrist -9.3276
rhand -17.4657 -4.40307
rfingers 7.12502
rthumb 8.78596 -34.2002
lclavicle -6.4605e-015 -1.51076e-014
lhumerus -28.9223 -1.3789 85.5054
lradius 42.7696
lwrist 11.7304
lhand -13.1426 -2.65016
lfingers 7.12502
lthumb 12.9557 26.9276
rfemur -8.13318 3.10674 31.6622
rtibia 24.7579
rfoot -10.6413 -21.402
rtoes 2.96395
lfemur -24.9359 1.52567 -8.81061
ltibia 54.9575
lfoot -10.6668 8.79792
ltoes 11.1643
